<svg height="512pt" viewBox="0 -3 512 512" width="512pt" xmlns="http://www.w3.org/2000/svg"><path d="m496.582031 35.621094h-100.433593v-20.332032c0-20.371093-30.835938-20.402343-30.835938 0v20.332032h-218.625v-20.332032c0-20.367187-30.835938-20.402343-30.835938 0v20.332032h-100.433593c-8.519531 0-15.417969 6.898437-15.417969 15.417968v439.125c0 8.511719 6.898438 15.417969 15.417969 15.417969h481.164062c8.519531 0 15.417969-6.90625 15.417969-15.417969 0-4.347656 0-428.082031 0-439.125 0-8.519531-6.898438-15.417968-15.417969-15.417968zm-15.417969 439.125h-450.328124v-295.71875h450.328124zm-450.328124-408.289063h85.015624v20.320313c0 20.449218 30.835938 20.332031 30.835938 0v-20.320313h218.625v20.320313c0 20.367187 30.835938 20.410156 30.835938 0v-20.320313h85.015624v81.734375h-450.328124zm0 0"/><path d="m311.914062 305.300781 4.78125-3.445312v74.914062c0 20.363281 30.835938 20.402344 30.835938 0v-104.988281c0-12.5625-14.242188-19.816406-24.410156-12.519531l-29.203125 21c-16.554688 11.90625 1.457031 36.929687 17.996093 25.039062zm0 0"/><path d="m215.089844 392.1875h12.253906c24.554688 0 44.527344-19.972656 44.527344-44.527344v-46.769531c0-24.546875-19.972656-44.527344-44.527344-44.527344h-12.253906c-24.554688 0-44.527344 19.980469-44.527344 44.527344v46.769531c0 24.554688 19.972656 44.527344 44.527344 44.527344zm-13.691406-91.296875c0-7.542969 6.136718-13.691406 13.691406-13.691406h12.253906c7.542969 0 13.691406 6.148437 13.691406 13.691406v46.769531c0 7.542969-6.148437 13.691406-13.691406 13.691406h-12.253906c-7.554688 0-13.691406-6.148437-13.691406-13.691406zm0 0"/><path d="m67.015625 392.1875h70.472656c20.363281 0 20.402344-30.835938 0-30.835938h-54.816406c1.714844-12.222656 12.242187-21.660156 24.933594-21.660156h7.269531c20.96875 0 38.03125-17.0625 38.03125-38.03125v-7.265625c0-20.96875-17.0625-38.03125-38.03125-38.03125h-47.859375c-20.363281 0-20.414063 30.835938 0 30.835938h47.859375c3.957031 0 7.195312 3.226562 7.195312 7.195312v7.265625c0 8.476563-9.375 7.195313-14.464843 7.195313-30.886719 0-56.007813 25.132812-56.007813 56.011719v11.902343c0 8.507813 6.898438 15.417969 15.417969 15.417969zm0 0"/><path d="m410.941406 346.054688c8.425782 0 12.414063.28125 18.625-1.367188v32.082031c0 20.367188 30.835938 20.402344 30.835938 0 0-12.121093 0-67.855469 0-80.175781 0-22.835938-18.574219-41.410156-41.402344-41.410156h-8.058594c-22.828125 0-41.402344 18.574218-41.402344 41.410156v8.050781c0 22.828125 18.574219 41.410157 41.402344 41.410157zm-10.566406-49.460938c0-5.835938 4.738281-10.574219 10.566406-10.574219h8.058594c5.828125 0 10.566406 4.738281 10.566406 10.574219v8.050781c0 5.828125-4.738281 10.574219-10.566406 10.574219h-8.058594c-5.828125 0-10.566406-4.746094-10.566406-10.574219zm0 0"/></svg>